<svg width="113" height="115" viewBox="0 0 113 115" fill="none" xmlns="http://www.w3.org/2000/svg">
<g id="Mask Group 2">
<path id="Ellipse 652" d="M56.5 112C87.4279 112 112.5 86.9279 112.5 56C112.5 25.0721 87.4279 0 56.5 0C25.5721 0 0.5 25.0721 0.5 56C0.5 86.9279 25.5721 112 56.5 112Z" fill="url(#paint0_linear_2695_3507)"/>
<g id="Group" filter="url(#filter0_d_2695_3507)">
<g id="Mask Group">
<mask id="mask0_2695_3507" style="mask-type:alpha" maskUnits="userSpaceOnUse" x="0" y="0" width="113" height="112">
<path id="Ellipse 653" d="M56.5 112C87.4279 112 112.5 86.9279 112.5 56C112.5 25.0721 87.4279 0 56.5 0C25.5721 0 0.5 25.0721 0.5 56C0.5 86.9279 25.5721 112 56.5 112Z" fill="url(#paint1_linear_2695_3507)"/>
</mask>
<g mask="url(#mask0_2695_3507)">
<path id="Rectangle 5615" d="M88.6067 32.1067H24.3934C22.3315 32.1067 20.66 33.7781 20.66 35.84V114.24C20.66 116.302 22.3315 117.973 24.3934 117.973H88.6067C90.6686 117.973 92.34 116.302 92.34 114.24V35.84C92.34 33.7781 90.6686 32.1067 88.6067 32.1067Z" fill="white"/>
</g>
</g>
</g>
<path id="Rectangle 5617" d="M49.78 39.5733H30.3667C29.1296 39.5733 28.1267 40.5762 28.1267 41.8133C28.1267 43.0505 29.1296 44.0533 30.3667 44.0533H49.78C51.0172 44.0533 52.02 43.0505 52.02 41.8133C52.02 40.5762 51.0172 39.5733 49.78 39.5733Z" fill="#E3F4FF"/>
<path id="Rectangle 5620" d="M49.78 70.9333H30.3667C29.1296 70.9333 28.1267 71.9362 28.1267 73.1733C28.1267 74.4105 29.1296 75.4133 30.3667 75.4133H49.78C51.0172 75.4133 52.02 74.4105 52.02 73.1733C52.02 71.9362 51.0172 70.9333 49.78 70.9333Z" fill="#E3F4FF"/>
<g id="Rectangle 5618">
<path id="Vector" d="M81.14 50.7733H31.86C30.2105 50.7733 28.8733 52.1105 28.8733 53.76V61.2267C28.8733 62.8762 30.2105 64.2133 31.86 64.2133H81.14C82.7894 64.2133 84.1266 62.8762 84.1266 61.2267V53.76C84.1266 52.1105 82.7894 50.7733 81.14 50.7733Z" stroke="#009BFF" stroke-width="2"/>
</g>
<path id="Rectangle 5619" d="M81.14 81.3867H31.86C29.7982 81.3867 28.1267 83.0581 28.1267 85.12V91.0933C28.1267 93.1552 29.7982 94.8267 31.86 94.8267H81.14C83.2019 94.8267 84.8734 93.1552 84.8734 91.0933V85.12C84.8734 83.0581 83.2019 81.3867 81.14 81.3867Z" fill="#E3F4FF"/>
<g id="Group 26781">
<path id="Ellipse 654" d="M40.0733 23.8933C41.7228 23.8933 43.06 22.5562 43.06 20.9067C43.06 19.2572 41.7228 17.92 40.0733 17.92C38.4238 17.92 37.0867 19.2572 37.0867 20.9067C37.0867 22.5562 38.4238 23.8933 40.0733 23.8933Z" fill="white"/>
<path id="Ellipse 655" d="M56.5 23.8933C58.1495 23.8933 59.4866 22.5562 59.4866 20.9067C59.4866 19.2572 58.1495 17.92 56.5 17.92C54.8505 17.92 53.5133 19.2572 53.5133 20.9067C53.5133 22.5562 54.8505 23.8933 56.5 23.8933Z" fill="#009BFF"/>
<path id="Ellipse 656" d="M72.9266 23.8933C74.5761 23.8933 75.9133 22.5562 75.9133 20.9067C75.9133 19.2572 74.5761 17.92 72.9266 17.92C71.2771 17.92 69.9399 19.2572 69.9399 20.9067C69.9399 22.5562 71.2771 23.8933 72.9266 23.8933Z" fill="white"/>
</g>
<g id="Group 26782">
<path id="Ellipse 658" d="M64.7133 65.7067C66.7752 65.7067 68.4466 64.0352 68.4466 61.9733C68.4466 59.9115 66.7752 58.24 64.7133 58.24C62.6515 58.24 60.98 59.9115 60.98 61.9733C60.98 64.0352 62.6515 65.7067 64.7133 65.7067Z" fill="#DFEAFB"/>
<path id="Path 25916" d="M67.6305 77.9296C67.0332 77.9296 66.4754 77.9296 65.9677 77.8975C65.3423 77.8552 64.7407 77.6412 64.229 77.2791C63.7173 76.9169 63.3155 76.4207 63.0676 75.8449L59.9174 69.6192C59.6864 69.3502 59.571 69.0008 59.5965 68.6471C59.6219 68.2934 59.7862 67.9641 60.0533 67.7309C60.2722 67.5549 60.5453 67.4602 60.8261 67.4628C61.0329 67.4689 61.2359 67.5196 61.4211 67.6117C61.6064 67.7037 61.7694 67.8348 61.8991 67.996L63.3297 69.9485L63.3514 69.9739V62.5557C63.3514 62.1877 63.4976 61.8347 63.7578 61.5745C64.018 61.3143 64.371 61.1681 64.739 61.1681C65.1071 61.1681 65.46 61.3143 65.7203 61.5745C65.9805 61.8347 66.1267 62.1877 66.1267 62.5557V67.4091C66.1106 67.2305 66.1319 67.0505 66.1892 66.8806C66.2465 66.7107 66.3385 66.5545 66.4595 66.4222C66.5804 66.2898 66.7277 66.1841 66.8917 66.1117C67.0558 66.0394 67.2332 66.002 67.4125 66.002C67.5918 66.002 67.7692 66.0394 67.9332 66.1117C68.0973 66.1841 68.2445 66.2898 68.3655 66.4222C68.4865 66.5545 68.5785 66.7107 68.6358 66.8806C68.6931 67.0505 68.7144 67.2305 68.6982 67.4091V68.4208C68.6821 68.2422 68.7034 68.0622 68.7607 67.8923C68.818 67.7224 68.91 67.5663 69.031 67.4339C69.152 67.3015 69.2992 67.1958 69.4633 67.1235C69.6273 67.0511 69.8047 67.0138 69.984 67.0138C70.1633 67.0138 70.3407 67.0511 70.5048 67.1235C70.6688 67.1958 70.8161 67.3015 70.937 67.4339C71.058 67.5663 71.15 67.7224 71.2073 67.8923C71.2646 68.0622 71.2859 68.2422 71.2698 68.4208V69.2003C71.2536 69.0217 71.2749 68.8417 71.3322 68.6718C71.3895 68.5019 71.4815 68.3458 71.6025 68.2134C71.7235 68.081 71.8707 67.9753 72.0348 67.903C72.1989 67.8306 72.3762 67.7933 72.5555 67.7933C72.7348 67.7933 72.9122 67.8306 73.0763 67.903C73.2404 67.9753 73.3876 68.081 73.5085 68.2134C73.6295 68.3458 73.7216 68.5019 73.7789 68.6718C73.8361 68.8417 73.8574 69.0217 73.8413 69.2003V73.932C73.8159 75.3872 73.1581 77.8408 70.8442 77.8408C70.6762 77.8482 69.253 77.9304 67.6335 77.9304L67.6305 77.9296Z" fill="#1485FD" stroke="white"/>
</g>
</g>
<defs>
<filter id="filter0_d_2695_3507" x="14.66" y="23.1067" width="83.6801" height="91.8933" filterUnits="userSpaceOnUse" color-interpolation-filters="sRGB">
<feFlood flood-opacity="0" result="BackgroundImageFix"/>
<feColorMatrix in="SourceAlpha" type="matrix" values="0 0 0 0 0 0 0 0 0 0 0 0 0 0 0 0 0 0 127 0" result="hardAlpha"/>
<feOffset dy="-3"/>
<feGaussianBlur stdDeviation="3"/>
<feColorMatrix type="matrix" values="0 0 0 0 0.788235 0 0 0 0 0.803922 0 0 0 0 0.85098 0 0 0 0.349 0"/>
<feBlend mode="normal" in2="BackgroundImageFix" result="effect1_dropShadow_2695_3507"/>
<feBlend mode="normal" in="SourceGraphic" in2="effect1_dropShadow_2695_3507" result="shape"/>
</filter>
<linearGradient id="paint0_linear_2695_3507" x1="56.5" y1="0" x2="56.5" y2="112" gradientUnits="userSpaceOnUse">
<stop stop-color="#E3ECFA"/>
<stop offset="1" stop-color="#DAE7FF"/>
</linearGradient>
<linearGradient id="paint1_linear_2695_3507" x1="56.5" y1="0" x2="56.5" y2="112" gradientUnits="userSpaceOnUse">
<stop stop-color="#E3F4FF"/>
<stop offset="1" stop-color="#E3F4FF"/>
</linearGradient>
</defs>
</svg>
