<svg width="385" height="75" viewBox="0 0 385 75" fill="none" xmlns="http://www.w3.org/2000/svg">
<path d="M38.2579 0H5.5186C4.05498 0 2.6513 0.604583 1.61636 1.68075C0.581422 2.75691 0 4.21651 0 5.73843L0 69.18C0 70.7019 0.581422 72.1615 1.61636 73.2377C2.6513 74.3139 4.05498 74.9185 5.5186 74.9185H54.4195C55.1432 74.9185 55.8598 74.7699 56.5281 74.4812C57.1964 74.1925 57.8033 73.7695 58.314 73.2363C58.8247 72.7032 59.2292 72.0704 59.5041 71.3743C59.7791 70.6782 59.9191 69.9325 59.9162 69.18V22.5438L38.2579 0Z" fill="#009BFF"/>
<path d="M14.2374 34.3694H12.7044C12.1527 34.3676 11.6207 34.5823 11.2147 34.9707C10.8087 35.3591 10.5586 35.8926 10.5145 36.4644V36.6466C10.5586 37.2184 10.8087 37.7519 11.2147 38.1403C11.6207 38.5287 12.1527 38.7434 12.7044 38.7416H14.2374C14.8182 38.7416 15.3752 38.5017 15.7859 38.0746C16.1966 37.6476 16.4273 37.0684 16.4273 36.4644C16.3832 35.8926 16.1331 35.3591 15.7271 34.9707C15.3211 34.5823 14.789 34.3676 14.2374 34.3694Z" fill="#FFDD5E"/>
<path d="M48.6411 60.8986V61.058C48.5969 61.6298 48.3469 62.1633 47.9409 62.5517C47.5348 62.9401 47.0028 63.1548 46.4511 63.153H42.7064C42.1256 63.153 41.5685 62.9131 41.1579 62.486C40.7472 62.059 40.5164 61.4798 40.5164 60.8758C40.5194 60.5861 40.5815 60.3003 40.6985 60.0373C40.8155 59.7743 40.9849 59.5401 41.1953 59.3501C41.6294 58.9315 42.202 58.7031 42.794 58.7125H46.5606C47.1074 58.7406 47.6243 58.9805 48.0094 59.3852C48.3945 59.7898 48.6198 60.3298 48.6411 60.8986Z" fill="#FFDD5E"/>
<path d="M10.5389 24.4118C10.5389 23.1773 11.5028 22.1765 12.6919 22.1765H33.7683C34.9574 22.1765 35.9213 23.1773 35.9213 24.4118C35.9213 25.6464 34.9574 26.6471 33.7683 26.6471H12.6919C11.5028 26.6471 10.5389 25.6464 10.5389 24.4118Z" fill="white"/>
<path d="M21.2471 36.5295C21.2471 35.295 22.211 34.2942 23.4001 34.2942H46.5162C47.7053 34.2942 48.6692 35.295 48.6692 36.5295C48.6692 37.764 47.7053 38.7648 46.5162 38.7648H23.4001C22.211 38.7648 21.2471 37.764 21.2471 36.5295Z" fill="white"/>
<path d="M10.5389 61.0001C10.5389 59.7656 11.5028 58.7648 12.6919 58.7648H33.5417C34.7308 58.7648 35.6947 59.7656 35.6947 61.0001C35.6947 62.2346 34.7308 63.2354 33.5417 63.2354H12.6919C11.5028 63.2354 10.5389 62.2346 10.5389 61.0001Z" fill="white"/>
<path d="M10.5389 48.8236C10.5389 47.5891 11.5028 46.5883 12.6919 46.5883H46.5162C47.7053 46.5883 48.6692 47.5891 48.6692 48.8236C48.6692 50.0581 47.7053 51.0589 46.5162 51.0589H12.6919C11.5028 51.0589 10.5389 50.0581 10.5389 48.8236Z" fill="white"/>
<path d="M59.9435 22.3058V39.5882L40.2268 21L59.9435 22.3058Z" fill="url(#paint0_linear_742_385)"/>
<path d="M38.3002 16.8054C38.3002 18.3273 38.8817 19.7869 39.9166 20.8631C40.9515 21.9393 42.3552 22.5438 43.8188 22.5438H59.9805L38.3002 0V16.8054Z" fill="#33AFFF"/>
<path d="M109.124 12.3738V31.101C106.542 27.7749 102.74 25.8226 97.5032 25.8226C87.8908 25.8226 80 34.1378 80 44.9113C80 55.6849 87.8908 64 97.5032 64C102.74 64 106.542 62.0478 109.124 58.7217V62.9877H118.378V12.3738H109.124ZM99.2248 55.1064C93.4861 55.1064 89.2537 50.985 89.2537 44.9113C89.2537 38.8377 93.4861 34.7162 99.2248 34.7162C104.892 34.7162 109.124 38.8377 109.124 44.9113C109.124 50.985 104.892 55.1064 99.2248 55.1064Z" fill="#009BFF"/>
<path d="M143.196 64C153.741 64 162.206 55.6849 162.206 44.9113C162.206 34.1378 153.741 25.8226 143.196 25.8226C132.651 25.8226 124.259 34.1378 124.259 44.9113C124.259 55.6849 132.651 64 143.196 64ZM143.196 54.8895C137.745 54.8895 133.512 50.7681 133.512 44.9113C133.512 39.0546 137.745 34.9332 143.196 34.9332C148.72 34.9332 152.952 39.0546 152.952 44.9113C152.952 50.7681 148.72 54.8895 143.196 54.8895Z" fill="#009BFF"/>
<path d="M185.071 64C192.101 64 198.199 60.2401 201.283 54.6003L193.249 49.9727C191.814 52.9372 188.73 54.7449 185 54.7449C179.476 54.7449 175.387 50.6235 175.387 44.9113C175.387 39.1269 179.476 35.0055 185 35.0055C188.658 35.0055 191.743 36.8854 193.177 39.8499L201.14 35.1501C198.199 29.5825 192.101 25.8226 185.071 25.8226C174.168 25.8226 166.134 34.1378 166.134 44.9113C166.134 55.6849 174.168 64 185.071 64Z" fill="#009BFF"/>
<path d="M229.413 26.8349V46.3574C229.413 52.648 226.041 55.3233 221.522 55.3233C217.361 55.3233 214.42 52.7926 214.42 47.8759V26.8349H205.167V49.0327C205.167 58.6494 211.121 64 218.724 64C223.531 64 227.261 62.1924 229.413 58.9386V62.9877H238.667V26.8349H229.413Z" fill="#009BFF"/>
<path d="M286.094 25.8226C281.216 25.8226 277.629 27.7749 275.405 31.0287C273.397 27.7026 270.097 25.8226 265.649 25.8226C261.058 25.8226 257.687 27.6303 255.678 30.6671V26.8349H246.425V62.9877H255.678V42.6699C255.678 37.2469 258.476 34.4993 262.421 34.4993C266.295 34.4993 268.447 37.1023 268.447 41.3683V62.9877H277.701V42.6699C277.701 37.2469 280.283 34.4993 284.372 34.4993C288.246 34.4993 290.398 37.1023 290.398 41.3683V62.9877H299.652V40.7176C299.652 31.6794 294.272 25.8226 286.094 25.8226Z" fill="#009BFF"/>
<path d="M311.385 22.4966C314.541 22.4966 317.123 19.8936 317.123 16.7844C317.123 13.6753 314.541 11 311.385 11C308.3 11 305.718 13.6753 305.718 16.7844C305.718 19.8936 308.3 22.4966 311.385 22.4966ZM306.794 62.9877H316.047V26.8349H306.794V62.9877Z" fill="#009BFF"/>
<path d="M343.742 25.8226C338.936 25.8226 335.206 27.6303 333.054 30.884V26.8349H323.8V62.9877H333.054V43.4652C333.054 37.1746 336.425 34.4993 340.944 34.4993C345.105 34.4993 348.046 37.03 348.046 41.9468V62.9877H357.3V40.7899C357.3 31.1733 351.346 25.8226 343.742 25.8226Z" fill="#009BFF"/>
<path d="M385 35.8008V26.8349H376.894V16.7121L367.64 19.5321V26.8349H361.399V35.8008H367.64V50.8404C367.64 60.6016 372.016 64.4338 385 62.9877V54.528C379.692 54.8172 376.894 54.7449 376.894 50.8404V35.8008H385Z" fill="#009BFF"/>
<defs>
<linearGradient id="paint0_linear_742_385" x1="45.7225" y1="17.4412" x2="58.9645" y2="35.8262" gradientUnits="userSpaceOnUse">
<stop stop-color="#0077C4"/>
<stop offset="1" stop-color="#009BFF"/>
</linearGradient>
</defs>
</svg>
